# xmcd CD database file
#
# Track frame offsets:
#	182
#	14207
#	29727
#	42067
#	58915
#	76182
#	91702
#	106957
#	122140
#	142057
#	160825
#	180005
#	197107
#
# Disc length: 2895 seconds
#
# Revision: 0
# Processed by: cddbd v1.5PL3 Copyright (c) Steve Scherf et al.
# Submitted via: CDex 1.51
#
DISCID=aa0b4d0d
DTITLE=Various Artist - Hit Singles 1981
DYEAR=1981
DGENRE=Rock
TTITLE0=Sheena Easton - For Your Eyes Only
TTITLE1=John Lennon - Woman
TTITLE2=A Taste Of Honey - Sukiyaki'81
TTITLE3=Olivia Newton-John - Physical
TTITLE4=Christopher Cross - Arthur's Theme
TTITLE5=Juice Newton - Queen Of Hearts
TTITLE6=REO Speedwagon - Keep On Loving You
TTITLE7=Sheena Easton - Morning Train (9 To 5)
TTITLE8=Barry Gibb - Barbra Streisand - Guilty
TTITLE9=Eric Clapton and His Band - I Can't Stand It
TTITLE10=Air Supply - The One That You Love
TTITLE11=Kim Carnes - Bette Davis Eyes
TTITLE12=Lionel Richie and Diana Ross - Endless Love
EXTD=YEAR: 1981
EXTT0=
EXTT1=
EXTT2=
EXTT3=
EXTT4=
EXTT5=
EXTT6=
EXTT7=
EXTT8=
EXTT9=
EXTT10=
EXTT11=
EXTT12=
PLAYORDER=
